<svg width="185" height="40" viewBox="0 0 185 40" fill="none" xmlns="http://www.w3.org/2000/svg">
<path d="M3 17.3984C1.56319 17.3984 0.398434 18.5632 0.398434 20C0.398434 21.4368 1.56319 22.6016 3 22.6016L3 17.3984ZM183.84 21.8396C184.856 20.8236 184.856 19.1764 183.84 18.1604L167.283 1.60415C166.267 0.588179 164.62 0.588179 163.604 1.60415C162.588 2.62013 162.588 4.26735 163.604 5.28332L178.321 20L163.604 34.7167C162.588 35.7327 162.588 37.3799 163.604 38.3958C164.62 39.4118 166.267 39.4118 167.283 38.3958L183.84 21.8396ZM3 22.6016L182 22.6016V17.3984L3 17.3984L3 22.6016Z" fill="#9FC136"/>
</svg>
